<svg width="54" height="40" viewBox="0 0 54 40" fill="none" xmlns="http://www.w3.org/2000/svg">
<g clip-path="url(#clip0_5114_22)">
<path d="M34 15.9365H46C45.0005 12.9371 37.0005 -1.06299 21 5.93648C29.0005 5.93701 33.0005 12.9371 34 15.9365Z" fill="#00D0FF"></path>
<path d="M34 27.9371H46C45.0005 30.9365 37.0005 44.9365 21 37.9371C29.0005 37.9365 33.0005 30.9364 34 27.9371Z" fill="#00D0FF"></path>
<path d="M11 13.937H22C22 13.937 19 15.937 19 21.937C19 27.937 22 29.937 22 29.937H11C11 29.937 8 27.937 8 21.937C8 15.937 11 13.937 11 13.937Z" fill="#00D0FF"></path>
</g>
<defs>
<clipPath id="clip0_5114_22">
<rect width="54" height="39.8735" fill="white"></rect>
</clipPath>
</defs>
</svg>